<svg width="192" height="33" viewBox="0 0 33 33" fill="none" xmlns="http://www.w3.org/2000/svg">
<g stroke-width="2px">
<path d="M0.5 3.28577H6.28571C10.4278 3.28577 13.7857 6.64363 13.7857 10.7858V14.7858H8C3.85787 14.7858 0.5 11.4279 0.5 7.28577V3.28577Z" stroke="#DAA520"/>
<path d="M16.2143 17.2142H22C26.1421 17.2142 29.5 20.5721 29.5 24.7142V28.7142H23.7143C19.5722 28.7142 16.2143 25.3564 16.2143 21.2142V17.2142Z" stroke="#DAA520"/>
<path d="M16.2143 9C16.2143 4.85787 19.5722 1.5 23.7143 1.5H27.7143V7.28571C27.7143 11.4278 24.3564 14.7857 20.2143 14.7857H16.2143V9Z" stroke="#DAA520"/>
<path d="M2.28571 24.7142C2.28571 20.5721 5.64357 17.2142 9.78571 17.2142H13.7857V22.9999C13.7857 27.1421 10.4278 30.4999 6.28571 30.4999H2.28571V24.7142Z" stroke="#DAA520"/>
</g>
</svg>
